<?xml version="1.0" standalone="no"?>
<!DOCTYPE svg PUBLIC "-//W3C//DTD SVG 20010904//EN"
 "http://www.w3.org/TR/2001/REC-SVG-20010904/DTD/svg10.dtd">
<svg version="1.0" xmlns="http://www.w3.org/2000/svg"
 width="648.000000pt" height="648.000000pt" viewBox="0 0 648.000000 648.000000"
 preserveAspectRatio="xMidYMid meet">
<metadata>
Created by potrace 1.11, written by Peter Selinger 2001-2013
</metadata>
<g transform="translate(0.000000,648.000000) scale(0.100000,-0.100000)"
fill="#000000" stroke="none">
<path d="M6387 6275 c-43 -12 -80 -23 -82 -24 -3 0 -6 -1 -7 -2 -3 -1 -19 -4
-58 -12 -14 -3 -41 -11 -60 -17 -19 -6 -43 -13 -53 -15 -10 -2 -52 -14 -95
-25 -88 -25 -84 -24 -137 -35 -49 -11 -47 -10 -65 -18 -18 -7 -315 -87 -349
-93 -13 -3 -32 -9 -43 -15 -10 -5 -18 -8 -18 -5 0 3 -15 0 -32 -5 -18 -6 -89
-25 -158 -43 -69 -19 -161 -43 -205 -55 -103 -28 -100 -28 -165 -44 -30 -8
-192 -51 -360 -97 -168 -45 -312 -84 -320 -86 -20 -5 -92 -24 -105 -28 -5 -2
-23 -6 -40 -11 -16 -4 -154 -41 -305 -82 -151 -40 -285 -75 -297 -78 -13 -2
-28 -7 -33 -10 -6 -4 -21 -8 -33 -10 -12 -2 -47 -11 -77 -19 -30 -9 -68 -18
-84 -21 -16 -3 -37 -10 -47 -16 -11 -5 -19 -8 -19 -5 0 2 -21 -3 -47 -11 -27
-8 -56 -16 -65 -18 -9 -2 -61 -15 -115 -30 -108 -29 -282 -75 -298 -79 -27 -7
-81 -22 -195 -53 -69 -19 -136 -36 -150 -39 -14 -2 -36 -9 -50 -14 -14 -5 -95
-28 -180 -50 -182 -48 -185 -49 -207 -54 -10 -2 -61 -16 -113 -30 -52 -15
-102 -29 -110 -30 -8 -2 -35 -9 -60 -16 -25 -7 -52 -14 -60 -16 -8 -2 -42 -11
-75 -20 -33 -9 -67 -18 -75 -19 -8 -2 -132 -36 -275 -75 -143 -39 -269 -73
-280 -74 -11 -2 -20 -4 -20 -5 0 -2 -7 -4 -16 -6 -10 -1 -75 -19 -145 -39 -71
-19 -147 -40 -169 -45 -22 -6 -65 -17 -95 -25 -125 -34 -286 -77 -304 -81 -11
-3 -23 -8 -27 -12 -7 -7 20 -125 50 -218 6 -16 12 -41 15 -55 3 -14 14 -56 25
-95 36 -130 50 -183 55 -207 3 -12 15 -57 26 -98 12 -41 29 -106 39 -145 11
-38 28 -104 39 -145 12 -41 30 -110 41 -152 12 -43 30 -113 42 -155 12 -43 29
-109 39 -148 10 -38 23 -82 29 -97 6 -16 9 -28 7 -28 -2 0 3 -21 11 -47 8 -27
16 -58 19 -69 2 -12 25 -97 50 -190 25 -92 47 -175 49 -184 2 -9 12 -48 23
-86 11 -38 29 -105 41 -149 65 -242 113 -422 116 -435 2 -8 14 -55 28 -105 14
-49 28 -103 32 -120 5 -16 9 -34 11 -40 28 -104 47 -173 50 -187 8 -34 13 -54
39 -143 14 -49 28 -101 31 -115 3 -14 17 -65 31 -115 14 -49 26 -97 28 -105 2
-8 17 -67 35 -130 17 -63 33 -124 35 -135 2 -11 11 -45 20 -75 9 -30 18 -62
20 -71 2 -10 17 -66 33 -125 16 -60 36 -133 43 -161 7 -29 16 -53 20 -53 4 0
29 25 55 57 27 31 54 61 60 67 5 6 39 45 74 86 35 41 71 82 79 91 9 9 25 27
35 40 22 28 128 152 136 159 3 3 32 37 65 75 33 39 62 72 65 75 3 3 32 37 65
75 33 39 62 72 65 75 3 3 47 55 99 115 52 61 99 115 105 120 7 6 21 23 34 39
12 16 46 56 76 90 76 86 262 302 316 365 25 30 50 59 57 66 7 7 44 50 84 96
39 46 75 86 78 89 4 3 16 17 27 32 17 22 108 127 149 172 6 6 35 40 65 76 55
64 97 113 135 155 11 13 36 42 57 66 20 24 48 58 63 74 14 17 43 50 63 75 20
25 44 52 53 60 9 8 40 44 70 80 30 35 61 72 69 80 8 9 40 45 70 81 30 35 102
118 159 184 58 66 130 149 160 185 31 36 66 76 78 90 57 65 67 78 101 119 21
24 46 54 58 65 11 12 61 68 110 126 49 58 97 112 106 121 10 9 18 19 18 22 0
3 10 17 23 30 12 12 35 39 52 57 46 54 222 259 274 319 25 29 55 63 66 76 11
12 31 35 45 51 14 16 67 79 119 139 91 105 105 122 142 162 9 10 74 86 144
168 70 83 133 155 139 160 6 6 36 39 66 75 67 79 77 91 175 205 137 158 189
219 213 243 12 12 22 25 22 28 0 3 10 15 23 28 12 13 42 47 67 76 25 28 54 62
65 74 11 12 38 44 60 71 22 26 47 55 56 64 8 9 58 66 109 126 51 61 96 112 99
115 4 3 31 34 61 69 30 35 67 78 83 95 22 25 35 48 25 45 -2 0 -38 -11 -81
-24z"/>
</g>
</svg>
